# xmcd
#
# Track frame offsets: 
#        150
#        10634
#        28851
#        47427
#        73656
#        87280
#        119201
#        125364
#        142975
#        175562
#        191005
#        210031
#        229631
#        242146
#        271865
#        286215
#        291624
#        304820
#        311695
#
# Disc length: 4290 seconds
#
# Revision: 2
# Processed by: cddbd v1.5.2PL0 Copyright (c) Steve Scherf et al.
# Submitted via: ExactAudioCopy v0.99pb4
#
DISCID=0d10c013
DTITLE=Tom Russell - Hotwalker
DYEAR=2005
DGENRE=Country
TTITLE0=Pilgrim Land
TTITLE1=Old America
TTITLE2=Hotwalker
TTITLE3=Border Lights
TTITLE4=Beat Folk
TTITLE5=Van Ronk
TTITLE6=Bakersfield
TTITLE7=Grapevine
TTITLE8=Woodrow
TTITLE9=Benediction: Edward Abbey
TTITLE10=Honky Jazz
TTITLE11=Swap Meet Jesus
TTITLE12=Bukowski #1
TTITLE13=Harry Partch, Jack Kerouac, Lenny Bruce
TTITLE14=Bukowski #2 "On the Hustle"
TTITLE15=Bukowski #3
TTITLE16=Requiem
TTITLE17=Coda: Little Jack Horton
TTITLE18=America the Beautiful
EXTD=
EXTT0=
EXTT1=
EXTT2=
EXTT3=
EXTT4=
EXTT5=
EXTT6=
EXTT7=
EXTT8=
EXTT9=
EXTT10=
EXTT11=
EXTT12=
EXTT13=
EXTT14=
EXTT15=
EXTT16=
EXTT17=
EXTT18=
PLAYORDER=
